:SAMPLES-PER-SECOND 30
:FRAME-RANGE 1-2775
:FULLY-SPECIFIED
:DEGREES
1301
root  -28.4852 39.2394 45.9786 -1.88544 67.2432 -2.35246
RightUpLeg  -3.06756 -9.96599 -3.12332
RightLeg  14.3034 -12.554 1.16311
RightFoot  -9.7811 -0.165633 7.26787
RightToes  -5.28216e-011 1.2921e-014 -6.02303e-014
Spine  10.8762 3.23282 14.3123
Spine1  -3.95126 6.0067 -8.30416
HEad  -26.1055 59.129 -26.5683
LeftShoulder1  1.0549 0.799468 -32.938
LeftArm  17.6349 5.61077 -32.9774
LeftForeArm  2.36255 -7.5633 -16.7857
LeftHand  0.170372 1.48435 -5.3909
RightShoulder  6.61002 9.15561 45.6886
RightArm  31.9012 -3.47418 15.8877
RightForeArm  -4.51856 17.8356 9.42144
RightHand  0.0276888 6.42097 -0.0710689
LeftUpLeg  -19.6706 7.35756 1.55747
LeftLeg  44.1187 0.522317 0.934629
LeftFoot  -3.48907 0.506239 -7.06635
LeftToes  -2.158e-010 -1.26819e-010 -1.05346e-011
1302
root  -27.6472 39.357 46.8232 -0.483521 68.7706 -1.07494
RightUpLeg  -0.119244 -9.78575 -3.18358
RightLeg  11.951 -14.1035 1.52799
RightFoot  -10.5136 -0.125154 7.41706
RightToes  -5.28216e-011 1.2921e-014 -6.02303e-014
Spine  10.4683 3.80464 13.6451
Spine1  -4.01751 6.42806 -9.15636
HEad  -27.5294 59.6726 -28.1658
LeftShoulder1  0.982781 0.985385 -32.9509
LeftArm  17.6646 8.39645 -31.4078
LeftForeArm  1.03577 -8.30214 -16.4927
LeftHand  0.153102 1.39566 -4.74457
RightShoulder  6.59398 9.3159 44.9812
RightArm  34.4316 -3.34143 15.8322
RightForeArm  -7.9213 20.3984 7.23302
RightHand  0.0176261 6.3711 -0.16783
LeftUpLeg  -20.6117 10.4646 -1.60467
LeftLeg  35.4361 0.312581 0.592801
LeftFoot  -4.48539 0.463168 -7.27766
LeftToes  -2.158e-010 -1.26819e-010 -1.05346e-011
1303
root  -26.7889 39.4197 47.6054 0.310974 70.4767 -0.450577
RightUpLeg  2.92633 -9.2417 -2.83932
RightLeg  9.30691 -16.1997 1.98606
RightFoot  -11.084 -0.0926491 7.67907
RightToes  -5.28216e-011 1.2921e-014 -6.02303e-014
Spine  9.93876 4.2336 13.0133
Spine1  -3.86326 6.76541 -9.79855
HEad  -28.6603 60.041 -29.2306
LeftShoulder1  0.901555 1.18899 -32.8714
LeftArm  16.923 11.0372 -30.1113
LeftForeArm  0.316633 -8.8831 -16.1814
LeftHand  0.149916 1.3135 -4.54143
RightShoulder  6.58257 9.40461 44.5774
RightArm  34.6776 -3.16735 15.5167
RightForeArm  -8.62962 21.7704 6.17252
RightHand  -0.0392425 6.26605 -0.728939
LeftUpLeg  -20.716 15.1485 -5.10373
LeftLeg  25.231 -1.39786 -0.388741
LeftFoot  -5.04821 0.501957 -8.57035
LeftToes  -2.158e-010 -1.26819e-010 -1.05346e-011
1304
root  -25.9041 39.423 48.3414 0.27655 72.4863 -0.592316
RightUpLeg  6.10279 -8.60025 -2.17165
RightLeg  6.59381 -18.5799 2.71599
RightFoot  -11.5497 -0.0642386 7.85454
RightToes  -5.28216e-011 1.2921e-014 -6.02303e-014
Spine  9.21673 4.47837 12.2498
Spine1  -3.39634 6.94216 -9.96151
HEad  -29.2588 60.3653 -29.4958
LeftShoulder1  0.828825 1.36456 -32.666
LeftArm  16.279 13.5603 -29.1056
LeftForeArm  -0.40639 -9.56157 -15.7916
LeftHand  0.149555 1.47093 -4.74392
RightShoulder  6.59917 9.49919 44.3542
RightArm  34.1385 -2.97874 15.2693
RightForeArm  -8.11327 21.9239 6.0368
RightHand  -0.059526 6.36062 -0.928081
LeftUpLeg  -19.7064 19.3041 -8.39042
LeftLeg  14.241 -1.95718 -1.25379
LeftFoot  -4.15852 0.736122 -11.3044
LeftToes  -2.158e-010 -1.26819e-010 -1.05346e-011
1305
root  -24.9344 39.2796 49.0497 -1.71881 74.7025 -2.55663
RightUpLeg  8.99112 -8.10225 -1.06391
RightLeg  5.19798 -20.9313 3.40678
RightFoot  -12.6404 0.0122237 8.64597
RightToes  -5.28216e-011 1.2921e-014 -6.02303e-014
Spine  8.52683 4.60388 11.7119
Spine1  -3.09286 6.98877 -9.75619
HEad  -29.2108 60.6126 -28.8943
LeftShoulder1  0.75929 1.52316 -32.2561
LeftArm  15.3094 15.8659 -28.3989
LeftForeArm  -0.329179 -9.84763 -15.5583
LeftHand  0.156325 1.26364 -4.66013
RightShoulder  6.58976 9.45378 44.4509
RightArm  33.5695 -3.05239 15.0681
RightForeArm  -7.69394 21.2789 6.46133
RightHand  -0.085629 6.39225 -1.18392
LeftUpLeg  -16.6999 6.66036 -4.75111
LeftLeg  4.11637 16.3173 -5.73564
LeftFoot  -3.18086 0.959217 -13.1347
LeftToes  -2.158e-010 -1.26819e-010 -1.05346e-011
1306
root  -23.8606 39.0247 49.7365 -5.67645 77.0423 -6.25613
RightUpLeg  11.4843 -8.05684 0.0329388
RightLeg  5.64206 -22.5545 3.88254
RightFoot  -14.2684 0.164042 10.1956
RightToes  -5.28216e-011 1.2921e-014 -6.02303e-014
Spine  7.76372 4.66575 11.2553
Spine1  -2.75534 6.93392 -9.29518
HEad  -28.743 60.5533 -27.622
LeftShoulder1  0.709512 1.63486 -31.882
LeftArm  14.027 17.5888 -27.8065
LeftForeArm  0.103825 -9.6035 -15.6012
LeftHand  0.165065 1.24768 -4.88748
RightShoulder  6.59536 9.33829 44.9092
RightArm  31.3087 -3.23455 14.8462
RightForeArm  -5.49628 19.4634 7.8731
RightHand  -0.0700624 6.45185 -1.02881
LeftUpLeg  -14.8834 3.57482 -5.33322
LeftLeg  -2.18857 24.7348 -7.60187
LeftFoot  -2.17394 1.18926 -14.6075
LeftToes  -2.158e-010 -1.26819e-010 -1.05346e-011
1307
root  -22.6932 38.7103 50.441 -11.5086 79.3858 -11.526
RightUpLeg  13.7232 -10.2162 0.473435
RightLeg  7.97147 -21.6022 3.77163
RightFoot  -16.0103 0.409488 12.6721
RightToes  -5.28216e-011 1.2921e-014 -6.02303e-014
Spine  6.91343 4.79517 10.3134
Spine1  -2.1782 6.87254 -8.47075
HEad  -27.7084 60.0846 -25.7132
LeftShoulder1  0.690562 1.66415 -31.4549
LeftArm  11.9984 18.4896 -27.4018
LeftForeArm  1.03779 -8.5328 -16.0175
LeftHand  0.168981 1.22454 -4.96378
RightShoulder  6.60805 9.13646 45.7462
RightArm  28.5066 -3.67064 14.4666
RightForeArm  -2.77789 17.1957 9.7893
RightHand  -0.0579935 6.44506 -0.910907
LeftUpLeg  -14.1415 2.9876 -6.75484
LeftLeg  -2.23497 28.3017 -7.37054
LeftFoot  -0.417379 0.248509 -2.57321
LeftToes  -2.158e-010 -1.26819e-010 -1.05346e-011
1308
root  -21.4686 38.3985 51.1507 -18.2073 81.4434 -17.3824
RightUpLeg  15.8576 -22.5601 -2.55354
RightLeg  13.5531 -9.28212 1.53632
RightFoot  -17.2627 0.723627 16.1699
RightToes  -5.28216e-011 1.2921e-014 -6.02303e-014
Spine  6.37613 5.01878 8.72332
Spine1  -1.80463 6.87261 -7.57833
HEad  -26.2055 59.4885 -23.367
LeftShoulder1  0.684798 1.64462 -30.7467
LeftArm  7.90511 18.8077 -27.3306
LeftForeArm  3.79756 -6.19916 -16.7089
LeftHand  0.169377 1.20632 -4.84832
RightShoulder  6.64692 8.88856 46.9706
RightArm  23.4492 -4.04484 14.0213
RightForeArm  2.4704 13.3713 12.5506
RightHand  -0.0274832 6.59291 -0.612424
LeftUpLeg  -14.2001 2.57942 -7.79362
LeftLeg  2.46886 28.3521 -4.34179
LeftFoot  0.941862 -1.37291 12.6496
LeftToes  -2.158e-010 -1.26819e-010 -1.05346e-011
1309
root  -20.2938 38.0922 51.7553 -15.2307 83.2896 -13.0968
RightUpLeg  15.3901 -29.69 -6.94081
RightLeg  24.4539 0.642514 0.0997434
RightFoot  -17.1944 1.03328 22.2519
RightToes  -5.28216e-011 1.2921e-014 -6.02303e-014
Spine  6.98607 5.21788 5.99271
Spine1  -1.75477 6.90181 -7.60623
HEad  -26.251 59.307 -22.4301
LeftShoulder1  0.661129 1.70924 -30.7531
LeftArm  5.75321 18.3208 -26.3572
LeftForeArm  4.45616 -4.4921 -17.1875
LeftHand  0.175061 1.29621 -5.21294
RightShoulder  6.78723 8.77164 48.4405
RightArm  19.6601 -4.35876 13.8441
RightForeArm  6.57413 9.55564 14.6968
RightHand  0.0260208 6.62344 -0.0965642
LeftUpLeg  -15.7161 4.75924 -10.127
LeftLeg  12.8258 25.472 2.07002
LeftFoot  -2.40651 -1.12685 14.5246
LeftToes  -2.158e-010 -1.26819e-010 -1.05346e-011
1310
root  -19.2614 37.7898 52.2462 3.85797 85.2888 6.54089
RightUpLeg  9.25965 -26.4028 -9.17403
RightLeg  39.7229 1.79277 1.32329
RightFoot  -11.4329 -0.0553051 28.6796
RightToes  -5.28216e-011 1.2921e-014 -6.02303e-014
Spine  7.58408 5.22271 2.86506
Spine1  -1.97889 6.68003 -8.26154
HEad  -27.4046 59.0443 -22.7493
LeftShoulder1  0.72602 1.57185 -31.4986
LeftArm  5.51541 16.6272 -25.0876
LeftForeArm  3.76505 -3.12534 -17.6643
LeftHand  0.178096 1.45581 -5.4696
RightShoulder  6.87613 8.67179 49.4799
RightArm  15.6104 -4.55793 14.3988
RightForeArm  10.6427 5.8564 16.0224
RightHand  0.149091 6.57903 1.09639
LeftUpLeg  -16.6548 10.1031 -13.8317
LeftLeg  18.9503 18.0822 5.35109
LeftFoot  -5.53676 -0.642924 13.2773
LeftToes  -2.158e-010 -1.26819e-010 -1.05346e-011
1311
root  -18.3338 37.64 52.6423 28.8106 86.1739 31.7646
RightUpLeg  0.526749 -20.9964 -9.54483
RightLeg  54.3277 1.47479 1.8134
RightFoot  1.76818 -2.73615 23.6063
RightToes  -5.28216e-011 1.2921e-014 -6.02303e-014
Spine  8.46971 5.27727 1.52728
Spine1  -2.08537 6.78698 -9.98905
HEad  -29.1231 58.5157 -24.7263
LeftShoulder1  0.807949 1.39588 -32.2519
LeftArm  6.01716 14.0744 -24.7511
LeftForeArm  3.64669 -1.88732 -18.074
LeftHand  0.179782 1.58065 -5.67108
RightShoulder  6.8683 8.69717 49.321
RightArm  15.1977 -5.6806 15.6791
RightForeArm  11.2536 4.89443 16.2792
RightHand  0.282115 6.66795 2.36095
LeftUpLeg  -16.0521 10.3767 -15.0848
LeftLeg  21.6997 16.8446 6.13266
LeftFoot  -7.83777 -0.351124 12.969
LeftToes  -2.158e-010 -1.26819e-010 -1.05346e-011
